# xmcd CD database file
#
# Track frame offsets:
#	150
#	12128
#	23849
#	33701
#	42480
#	56080
#	66350
#	79296
#	94305
#	103938
#	115420
#	126448
#	137446
#	146183
#
# Disc length: 2142 seconds
#
# Revision: 0
# Processed by: cddbd v1.5.2PL0 Copyright (c) Steve Scherf et al.
# Submitted via: CDex 1.51
#
DISCID=d4085c0e
DTITLE=Chris Isaak - Beyond The Sun CD1
DYEAR=2011
DGENRE=Country
TTITLE0=Ring Of Fire
TTITLE1=Trying To Get You
TTITLE2=I Forgot To Remember To Forget
TTITLE3=Great Balls Of Fire
TTITLE4=Can't Help Falling In Love
TTITLE5=Dixie Fried
TTITLE6=How's The World Treating You
TTITLE7=It's Now Or Never
TTITLE8=Miss Pearl
TTITLE9=Live It Up
TTITLE10=I Walk The Line
TTITLE11=So Long I'm Gone
TTITLE12=She's Not You
TTITLE13=My Happiness
EXTD=YEAR: 2011
EXTT0=
EXTT1=
EXTT2=
EXTT3=
EXTT4=
EXTT5=
EXTT6=
EXTT7=
EXTT8=
EXTT9=
EXTT10=
EXTT11=
EXTT12=
EXTT13=
PLAYORDER=
